Crispy Narrow Thin-MinGrade.ufo
<glyph name="ampersand" format="2">
  <advance width="338"/>
  <unicode hex="0026"/>
  <outline>
    <contour>
      <point x="11" y="602" type="line"/>
      <point x="11" y="0" type="line"/>
      <point x="109" y="0" type="line"/>
      <point x="199" y="494" type="line"/>
      <point x="219" y="494" type="line"/>
      <point x="335" y="-29" type="line"/>
      <point x="337" y="-28" type="line"/>
      <point x="221" y="496" type="line"/>
      <point x="197" y="496" type="line"/>
      <point x="106" y="2" type="line"/>
      <point x="13" y="2" type="line"/>
      <point x="13" y="600" type="line"/>
      <point x="102" y="600" type="line"/>
      <point x="102" y="1242" type="line"/>
      <point x="162" y="1598" type="line"/>
      <point x="220" y="1598" type="line"/>
      <point x="220" y="991" type="line"/>
      <point x="222" y="991" type="line"/>
      <point x="222" y="1600" type="line"/>
      <point x="161" y="1600" type="line"/>
      <point x="100" y="1242" type="line"/>
      <point x="100" y="602" type="line"/>
    </contour>
  </outline>
</glyph>
<glyph name="quotesingle" format="2">
  <advance width="76"/>
  <unicode hex="0027"/>
  <outline>
    <contour>
      <point x="36" y="1188" type="line"/>
      <point x="38" y="1188" type="line"/>
      <point x="38" y="1600" type="line"/>
      <point x="36" y="1600" type="line"/>
    </contour>
  </outline>
</glyph>
<glyph name="hyphen" format="2">
  <advance width="157"/>
  <unicode hex="002D"/>
  <outline>
    <contour>
      <point x="19" y="799" type="line"/>
      <point x="138" y="799" type="line"/>
      <point x="138" y="801" type="line"/>
      <point x="19" y="801" type="line"/>
    </contour>
  </outline>
</glyph>
<glyph name="question" format="2">
  <advance width="170"/>
  <unicode hex="003F"/>
  <outline>
    <contour>
      <point x="65" y="329" type="line"/>
      <point x="87" y="329" type="line"/>
      <point x="138" y="542" type="line"/>
      <point x="138" y="1600" type="line"/>
      <point x="47" y="1600" type="line"/>
      <point x="47" y="1148" type="line"/>
      <point x="49" y="1148" type="line"/>
      <point x="49" y="1598" type="line"/>
      <point x="136" y="1598" type="line"/>
      <point x="136" y="543" type="line"/>
      <point x="85" y="331" type="line"/>
      <point x="65" y="331" type="line"/>
    </contour>
    <contour>
      <point x="83" y="0" type="line"/>
      <point x="85" y="0" type="line"/>
      <point x="85" y="62" type="line"/>
      <point x="83" y="62" type="line"/>
    </contour>
  </outline>
</glyph>
<glyph name="A" format="2">
  <advance width="172"/>
  <unicode hex="0041"/>
  <outline>
    <contour>
      <point x="35" y="0" type="line"/>
      <point x="37" y="0" type="line"/>
      <point x="37" y="1437" type="line"/>
      <point x="72" y="1598" type="line"/>
      <point x="135" y="1598" type="line"/>
      <point x="135" y="0" type="line"/>
      <point x="137" y="0" type="line"/>
      <point x="137" y="1600" type="line"/>
      <point x="70" y="1600" type="line"/>
      <point x="35" y="1438" type="line"/>
    </contour>
    <contour>
      <point x="36" y="798" type="line"/>
      <point x="136" y="798" type="line"/>
      <point x="136" y="800" type="line"/>
      <point x="36" y="800" type="line"/>
    </contour>
  </outline>
</glyph>
<glyph name="E" format="2">
  <advance width="161"/>
  <unicode hex="0045"/>
  <outline>
    <contour>
      <point x="35" y="0" type="line"/>
      <point x="127" y="0" type="line"/>
      <point x="127" y="512" type="line"/>
      <point x="125" y="512" type="line"/>
      <point x="125" y="2" type="line"/>
      <point x="37" y="2" type="line"/>
      <point x="37" y="799" type="line"/>
      <point x="118" y="799" type="line"/>
      <point x="118" y="801" type="line"/>
      <point x="37" y="801" type="line"/>
      <point x="37" y="1598" type="line"/>
      <point x="124" y="1598" type="line"/>
      <point x="124" y="1090" type="line"/>
      <point x="126" y="1090" type="line"/>
      <point x="126" y="1600" type="line"/>
      <point x="35" y="1600" type="line"/>
    </contour>
  </outline>
</glyph>
<glyph name="P" format="2">
  <advance width="177"/>
  <unicode hex="0050"/>
  <outline>
    <contour>
      <point x="48" y="0" type="line"/>
      <point x="50" y="0" type="line"/>
      <point x="50" y="651" type="line"/>
      <point x="143" y="651" type="line"/>
      <point x="143" y="1600" type="line"/>
      <point x="48" y="1600" type="line"/>
    </contour>
    <contour>
      <point x="50" y="653" type="line"/>
      <point x="50" y="1598" type="line"/>
      <point x="141" y="1598" type="line"/>
      <point x="141" y="653" type="line"/>
    </contour>
  </outline>
</glyph>
<glyph name="a" format="2">
  <advance width="158"/>
  <unicode hex="0061"/>
  <outline>
    <contour>
      <point x="22" y="0" type="line"/>
      <point x="98" y="0" type="line"/>
      <point x="120" y="0" type="line"/>
      <point x="120" y="0" type="line"/>
      <point x="122" y="0" type="line"/>
      <point x="122" y="1200" type="line"/>
      <point x="93" y="1200" type="line"/>
      <point x="22" y="826" type="line"/>
    </contour>
    <contour>
      <point x="24" y="2" type="line"/>
      <point x="24" y="825" type="line"/>
      <point x="95" y="1198" type="line"/>
      <point x="120" y="1198" type="line"/>
      <point x="120" y="2" type="line"/>
    </contour>
  </outline>
</glyph>
<glyph name="c" format="2">
  <advance width="122"/>
  <unicode hex="0063"/>
  <outline>
    <contour>
      <point x="31" y="0" type="line"/>
      <point x="31" y="1038" type="line"/>
      <point x="66" y="1200" type="line"/>
      <point x="100" y="1200" type="line"/>
      <point x="100" y="1198" type="line"/>
      <point x="68" y="1198" type="line"/>
      <point x="33" y="1037" type="line"/>
      <point x="33" y="2" type="line"/>
      <point x="99" y="2" type="line"/>
      <point x="101" y="0" type="line"/>
    </contour>
  </outline>
</glyph>
<glyph name="e" format="2">
  <advance width="148"/>
  <unicode hex="0065"/>
  <outline>
    <contour>
      <point x="31" y="0" type="line"/>
      <point x="132" y="0" type="line"/>
      <point x="132" y="2" type="line"/>
      <point x="33" y="2" type="line"/>
      <point x="33" y="532" type="line"/>
      <point x="122" y="532" type="line"/>
      <point x="122" y="1200" type="line"/>
      <point x="66" y="1200" type="line"/>
      <point x="31" y="1038" type="line"/>
    </contour>
    <contour>
      <point x="33" y="534" type="line"/>
      <point x="33" y="1037" type="line"/>
      <point x="68" y="1198" type="line"/>
      <point x="120" y="1198" type="line"/>
      <point x="120" y="534" type="line"/>
    </contour>
  </outline>
</glyph>
<glyph name="f" format="2">
  <advance width="135"/>
  <unicode hex="0066"/>
  <outline>
    <contour>
      <point x="64" y="0" type="line"/>
      <point x="64" y="1431" type="line"/>
      <point x="118" y="1600" type="line"/>
      <point x="179" y="1600" type="line"/>
      <point x="179" y="1598" type="line"/>
      <point x="120" y="1598" type="line"/>
      <point x="66" y="1431" type="line"/>
      <point x="66" y="0" type="line"/>
    </contour>
    <contour>
      <point x="16" y="798" type="line"/>
      <point x="16" y="800" type="line"/>
      <point x="43" y="800" type="line"/>
      <point x="56" y="800" type="line"/>
      <point x="108" y="800" type="line"/>
      <point x="147" y="800" type="line"/>
      <point x="147" y="798" type="line"/>
    </contour>
  </outline>
</glyph>
<glyph name="g" format="2">
  <advance width="158"/>
  <unicode hex="0067"/>
  <outline>
    <contour>
      <point x="31" y="-284" type="line"/>
      <point x="88" y="-284" type="line"/>
      <point x="122" y="-121" type="line"/>
      <point x="122" y="1200" type="line"/>
      <point x="57" y="1200" type="line"/>
      <point x="22" y="1035" type="line"/>
      <point x="22" y="0" type="line"/>
      <point x="72" y="0" type="line"/>
      <point x="120" y="0" type="line"/>
      <point x="120" y="-121" type="line"/>
      <point x="86" y="-282" type="line"/>
      <point x="31" y="-282" type="line"/>
    </contour>
    <contour>
      <point x="24" y="2" type="line"/>
      <point x="24" y="1034" type="line"/>
      <point x="59" y="1198" type="line"/>
      <point x="120" y="1198" type="line"/>
      <point x="120" y="2" type="line"/>
    </contour>
  </outline>
</glyph>
<glyph name="h" format="2">
  <advance width="148"/>
  <unicode hex="0068"/>
  <outline>
    <contour>
      <point x="115" y="0" type="line"/>
      <point x="115" y="1198" type="line"/>
      <point x="30" y="1198" type="line"/>
      <point x="30" y="1200" type="line"/>
      <point x="75" y="1200" type="line"/>
      <point x="117" y="1200" type="line"/>
      <point x="117" y="0" type="line"/>
    </contour>
    <contour>
      <point x="29" y="0" type="line"/>
      <point x="29" y="1700" type="line"/>
      <point x="31" y="1700" type="line"/>
      <point x="31" y="0" type="line"/>
    </contour>
  </outline>
</glyph>
<glyph name="k" format="2">
  <advance width="158"/>
  <unicode hex="006B"/>
  <outline>
    <contour>
      <point x="37" y="809" type="line"/>
      <point x="128" y="809" type="line"/>
      <point x="128" y="0" type="line"/>
      <point x="130" y="0" type="line"/>
      <point x="130" y="811" type="line"/>
      <point x="70" y="811" type="line"/>
      <point x="71" y="811" type="line"/>
      <point x="119" y="1200" type="line"/>
      <point x="117" y="1200" type="line"/>
      <point x="69" y="811" type="line"/>
      <point x="37" y="811" type="line"/>
    </contour>
    <contour>
      <point x="36" y="0" type="line"/>
      <point x="38" y="0" type="line"/>
      <point x="38" y="1700" type="line"/>
      <point x="36" y="1700" type="line"/>
    </contour>
  </outline>
</glyph>
<glyph name="s" format="2">
  <advance width="123"/>
  <unicode hex="0073"/>
  <outline>
    <contour>
      <point x="20" y="0" type="line"/>
      <point x="69" y="0" type="line"/>
      <point x="104" y="163" type="line"/>
      <point x="104" y="611" type="line"/>
      <point x="21" y="611" type="line"/>
      <point x="21" y="1038" type="line"/>
      <point x="56" y="1198" type="line"/>
      <point x="104" y="1198" type="line"/>
      <point x="104" y="1200" type="line"/>
      <point x="54" y="1200" type="line"/>
      <point x="19" y="1039" type="line"/>
      <point x="19" y="609" type="line"/>
      <point x="102" y="609" type="line"/>
      <point x="102" y="164" type="line"/>
      <point x="67" y="2" type="line"/>
      <point x="20" y="2" type="line"/>
    </contour>
  </outline>
</glyph>
<glyph name="y" format="2">
  <advance width="140"/>
  <unicode hex="0079"/>
  <outline>
    <contour>
      <point x="37" y="0" type="line"/>
      <point x="91" y="0" type="line"/>
      <point x="82" y="-300" type="line"/>
      <point x="84" y="-300" type="line"/>
      <point x="128" y="1200" type="line"/>
      <point x="126" y="1200" type="line"/>
      <point x="91" y="2" type="line"/>
      <point x="39" y="2" type="line"/>
      <point x="38" y="1200" type="line"/>
      <point x="36" y="1200" type="line"/>
    </contour>
  </outline>
</glyph>
<glyph name="Eth" format="2">
  <advance width="166"/>
  <unicode hex="00D0"/>
  <outline>
    <contour>
      <point x="4" y="794" type="line"/>
      <point x="85" y="794" type="line"/>
      <point x="85" y="796" type="line"/>
      <point x="4" y="796" type="line"/>
    </contour>
    <component base="D"/>
  </outline>
</glyph>
<glyph name="summation" format="2">
  <advance width="154"/>
  <unicode hex="2211"/>
  <outline>
    <contour>
      <point x="34" y="-400" type="line"/>
      <point x="127" y="-400" type="line"/>
      <point x="127" y="-58" type="line"/>
      <point x="125" y="-58" type="line"/>
      <point x="125" y="-398" type="line"/>
      <point x="36" y="-398" type="line"/>
      <point x="117" y="599" type="line"/>
      <point x="117" y="601" type="line"/>
      <point x="36" y="1598" type="line"/>
      <point x="124" y="1598" type="line"/>
      <point x="124" y="1160" type="line"/>
      <point x="126" y="1160" type="line"/>
      <point x="126" y="1600" type="line"/>
      <point x="34" y="1600" type="line"/>
      <point x="115" y="600" type="line"/>
    </contour>
  </outline>
</glyph>
<glyph name="E.wide" format="2">
  <advance width="165"/>
  <outline>
    <contour>
      <point x="48" y="0" type="line"/>
      <point x="140" y="0" type="line"/>
      <point x="140" y="2" type="line"/>
      <point x="50" y="2" type="line"/>
      <point x="50" y="799" type="line"/>
      <point x="132" y="799" type="line"/>
      <point x="132" y="801" type="line"/>
      <point x="50" y="801" type="line"/>
      <point x="50" y="1598" type="line"/>
      <point x="139" y="1598" type="line"/>
      <point x="139" y="1600" type="line"/>
      <point x="48" y="1600" type="line"/>
    </contour>
  </outline>
</glyph>
<glyph name="Z.wide" format="2">
  <advance width="158"/>
  <outline>
    <contour>
      <point x="29" y="0" type="line"/>
      <point x="129" y="0" type="line"/>
      <point x="129" y="2" type="line"/>
      <point x="31" y="2" type="line"/>
      <point x="31" y="231" type="line"/>
      <point x="125" y="1480" type="line"/>
      <point x="125" y="1600" type="line"/>
      <point x="32" y="1600" type="line"/>
      <point x="32" y="1598" type="line"/>
      <point x="123" y="1598" type="line"/>
      <point x="123" y="1480" type="line"/>
      <point x="29" y="234" type="line"/>
    </contour>
  </outline>
</glyph>
